Source:Mama.2013.WEBRip.720P.Xvid-SmY and MATiNE'S 720p for fix footage.. THX
 
http://www.imdb.com/title/tt2023587/

Format : AVI
Format/Info : Audio Video Interleave
File size : 1.39 GiB
Duration : 1h 39mn
Overall bit rate : 2 000 Kbps
Writing application : Lavf52.84.0
Writing library : VirtualDub build 33848/release

Video
ID : 0
Format : MPEG-4 Visual
Format profile : Advanced Simple@L5
Format settings, BVOP : Yes
Format settings, QPel : No
Format settings, GMC : No warppoints
Format settings, Matrix : Default (H.263)
Muxing mode : Packed bitstream
Codec ID : XVID
Codec ID/Hint : XviD
Duration : 1h 39mn
Bit rate : 1 796 Kbps
Width : 720 pixels
Height : 400 pixels
Display aspect ratio : 16:9
Frame rate : 29.970 fps
Color space : YUV
Chroma subsampling : 4:2:0
Bit depth : 8 bits
Scan type : Progressive
Bits/(Pixel*Frame) : 0.208
Stream size : 1.25 GiB (90%)
Writing library : XviD 1.2.1 (UTC 2008-12-04)

Audio
ID : 1
Format : MPEG Audio
Format version : Version 1
Format profile : Layer 3
Mode : Joint stereo
Mode extension : MS Stereo
Codec ID : 55
Codec ID/Hint : MP3
Duration : 1h 39mn
Bit rate mode : Constant
Bit rate : 192 Kbps
Channel(s) : 2 channels
Sampling rate : 48.0 KHz
Stream size : 137 MiB (10%)
Alignment : Split accross interleaves
Interleave, duration : 33 ms (1.00 video frame)
Interleave, preload duration : 500 ms
Writing library : LAME3.98.2

Workdone:
The webrip was nice besides the foreign subtitles in it and the freeze footage. There wasnt really anything we could do about the subtitles but we got rit of the watermark on the top right corner and fix the freeze footage with MATiNE 720p. Turn out very nice. We did the usual filter on both videos and audio was not touch.

ENJOY...SAMPLE SHOWS BOTH SOURCES...TURN OUT NICE

 
http://www.shotpix.com/images/85187307538861334221.png 
http://www.shotpix.com/images/88701318601625130650.png 
http://www.shotpix.com/images/00109410514871856885.png 
http://www.shotpix.com/images/79709251720116281336.png
